<?xml version="1.0" encoding="utf-8"?>
<!-- Generator: Adobe Illustrator 28.0.0, SVG Export Plug-In . SVG Version: 6.00 Build 0)  -->
<svg version="1.1" id="Layer_1" xmlns="http://www.w3.org/2000/svg" xmlns:xlink="http://www.w3.org/1999/xlink" x="0px" y="0px"
	 viewBox="0 0 1024 1024" style="enable-background:new 0 0 1024 1024;" xml:space="preserve">
<style type="text/css">
	.st0{fill:#FFFFFF;}
	.st1{fill:none;stroke:#FFE4AD;stroke-width:2;}
	.st2{fill:none;stroke:#808088;stroke-width:2;}
	.st3{fill:none;stroke:#CFCDD1;stroke-width:2;}
	.st4{fill:none;stroke:#F7A791;stroke-width:2;}
	.st5{fill:none;stroke:#78281A;stroke-width:2;}
	.st6{fill:none;stroke:#F78C3E;stroke-width:2;}
	.st7{fill:none;stroke:#806536;stroke-width:2;}
	.st8{fill:none;stroke:#504E5A;stroke-width:2;}
	.st9{fill:none;stroke:#181929;stroke-width:2;}
	.st10{fill:none;stroke:#9798A0;stroke-width:2;}
	.st11{fill:none;stroke:#676672;stroke-width:2;}
	.st12{fill:none;stroke:#383846;stroke-width:2;}
	.st13{fill:none;stroke:#4F505D;stroke-width:2;}
	.st14{fill:none;stroke:#2C2D3C;stroke-width:2;}
	.st15{fill:none;stroke:#080919;stroke-width:2;}
	.st16{fill:none;stroke:#B7B7BD;stroke-width:2;}
	.st17{fill:none;stroke:#ABACB3;stroke-width:2;}
	.st18{fill:none;stroke:#636470;stroke-width:2;}
	.st19{fill:none;stroke:#323443;stroke-width:2;}
	.st20{fill:none;stroke:#1F2130;stroke-width:2;}
	.st21{fill:none;stroke:#3F404D;stroke-width:2;}
	.st22{fill:none;stroke:#434553;stroke-width:2;}
	.st23{fill:none;stroke:#878890;stroke-width:2;}
	.st24{fill:#EF4F22;}
	.st25{fill:#FFC95A;}
	.st26{fill:#010111;}
	.st27{fill:#2F3140;}
	.st28{fill:#9F9BA3;}
	.st29{fill:#6F6F7A;}
	.st30{fill:#565866;}
	.st31{fill:#0E1020;}
</style>
<path class="st0" d="M839.4,1024H184.6C82.6,1024,0,941.4,0,839.4V184.6C0,82.6,82.6,0,184.6,0h654.8C941.4,0,1024,82.6,1024,184.6
	v654.8C1024,941.4,941.4,1024,839.4,1024z"/>
<g>
	<path vector-effect="non-scaling-stroke" class="st1" d="M681,167.3l17.1-2.7c0.5-0.1,0.9-0.6,0.8-1.1c0-0.2-0.1-0.3-0.2-0.5
		c-0.9-1.1-2-2.1-3.4-3c-3.7-2.4-7.7-4.9-11.9-7.3c-0.5-0.3-0.7-0.9-0.4-1.4c0.1-0.2,0.2-0.3,0.4-0.4c1.6-1,3.5-1.7,5.6-2.1
		c4.7-1,9.6-1.6,14.6-2c0.6,0,0.8-0.3,0.6-0.9c-1.5-5.8-2-12.6-1.6-20.4c0-0.3,0.3-0.6,0.7-0.6c0.1,0,0.3,0.1,0.4,0.1
		c5.6,4.4,10.8,9.3,15.6,14.6c0.9,1,1.6,0.9,2.3-0.2c3.2-5,6-10.2,8.6-15.8c0.4-0.8,0.9-1.4,1.6-1.8c0.4-0.2,0.7-0.1,0.8,0.3
		l5.8,18.3c0.2,0.5,0.7,0.8,1.3,0.7c0,0,0.1,0,0.1-0.1c5.2-2.6,10.7-4.8,16.4-6.7c0.7-0.2,1.5,0.2,1.7,0.9c0.1,0.2,0.1,0.4,0.1,0.5
		c-0.5,5.7-4,10.8-7.4,15.3c-0.2,0.3-0.2,0.6,0.2,0.7l16.2,6.7c0.5,0.2,0.8,0.8,0.6,1.4c-0.1,0.1-0.1,0.3-0.2,0.4
		c-0.2,0.2-0.5,0.4-0.8,0.6c-5.8,2.7-11.6,5.2-17.5,7.6c-0.3,0.1-0.5,0.5-0.3,0.8c0,0.1,0.1,0.2,0.2,0.2c4.7,4.1,9.6,8.1,14.8,11.8
		c0.4,0.3,0.5,0.6,0.5,1.1c-0.1,0.5-0.3,0.7-0.8,0.7l-19.1,0.6"/>
	<path vector-effect="non-scaling-stroke" class="st2" d="M744.1,183.8c-23.2-16.6-52.9-21.4-79.3-8.6
		c-10.8,5.3-20.4,10.5-29.8,18.3c-10.9,8.9-20.4,18.6-28.7,29.2c-5.6,7.2-11.7,16.3-18.3,27.3c-6.3,10.4-11,21.8-15.9,33
		c-0.2,0.4-0.6,0.6-1,0.4c0,0-0.1,0-0.1,0c-18.7-10.1-41.7-18.2-63.6-16.3c-11,1-19.3,5.6-24.8,13.8c-10.9,16.3-20.8,36.3-31.3,54.3
		c-0.5,0.8-1.2,1.3-2.2,1.3c-23.9,0.7-43.9,2.5-60.2,5.3c-19.7,3.3-40.1,9.2-61.1,17.6c-18,7.2-36.3,17.3-55,30.5
		c-6.6,4.7-12.6,9.3-17.9,13.8c-26.9,23.3-48.8,49.2-65.7,77.8c-15.9,26.9-27.3,56.6-34.2,89.3c-1.4,6.7-2.6,14.1-3.4,22
		c-3.2,29.7-2.3,59.6,2.9,89.9c1,6.1,2.3,11.9,3.8,17.6c4.8,18.2,11,35.1,18.6,50.7c8.4,17.3,17.3,32.8,26.8,46.5
		c9.5,13.7,21.3,27.4,35.3,41.2c13.7,13.5,29.2,25.7,46.5,36.6c5.5,3.5,12.4,6.9,18.6,10.6"/>
	<path vector-effect="non-scaling-stroke" class="st3" d="M304.1,885.7c-5-0.1-8.2,0-9.5,0.1c-26.8,2.2-54.6,5.4-83.5,9.8
		c-6.7,1-76.2,11.3-67.7,25.7c3.3,5.6,14.4,9.5,20.4,11.2c13.2,3.8,27.5,6.9,42.8,9.3c28.4,4.5,56.7,7.9,85,10.2
		c25,2,50.5,3.7,76.5,5c7.3,0.4,14.6,0.6,21.8,0.8c65,1.5,130,0.9,194.9-1.6c30.5-1.2,60.4-3.3,89.6-6.3c16.9-1.8,35.3-4.4,51.4-6.7
		c13.9-2,28.3-4.8,43.2-8.3c6.2-1.5,12.4-3.4,18.6-5.8c4.5-1.8,11-4.5,12.1-9.4c0.7-3-3-6.2-5.2-7.6c-4.6-2.9-10.6-5.3-17.9-7.2
		c-16.1-4.2-31.7-7.2-46.9-9.2c-42.4-5.5-86.7-9.4-132.9-11.5c-4-0.2-7.2-0.1-9.8,0.2"/>
	<path vector-effect="non-scaling-stroke" class="st2" d="M587,884.4c5.3-3.1,10.4-6.1,15.4-9.2c14.8-9,27.9-19,39.4-30
		c23.9-23,43.1-49,57.6-78c17.1-34.2,27.5-70.4,31.2-108.6c1.9-19.8,1.6-40.5-0.9-62.1c-0.8-7.2-2.1-14.5-3.9-22
		c-4.2-18-8.8-33.3-13.9-46.1c-14.1-36-34.3-68.4-60.6-97.4c-0.4-0.5-0.5-1.2-0.2-1.7c4.8-7.9,9.6-15.5,14.4-22.8
		c5.8-8.7,10.1-16.5,8.8-27.5c-0.9-7.1-3.6-14.2-8.2-21.2c-8-12.3-17.4-22.9-28.2-32c-5.9-4.9-11.9-10-18.2-15.1
		c-0.2-0.2-0.3-0.4-0.2-0.6c6.3-15.3,14-29.9,23.1-43.7c7.4-11.3,16.7-21.4,27.9-30.2c5.6-4.4,11.8-7.4,18.6-9.2
		c13.2-3.4,27.3,3.3,34.5,14.2c5.5,8.4,9.1,17.2,10.8,26.4c2.8,15,4,30,4.1,46c0.1,11,0.1,22.3,0,33.9c0,5.7,0.6,10.3,1.8,13.8
		c2.5,7,7,12.2,13.7,15.5c15.9,7.9,33,0.3,39.1-15.7c1.2-3.2,1.8-7.9,1.8-14c-0.1-13.3-0.2-26-0.3-37.9c-0.1-8.4-1-17.2-1.9-25.7
		c-2.2-20.1-7.7-39.7-16.4-58.6c-2.5-5.4-6.8-12.9-12.9-22.5"/>
	<path vector-effect="non-scaling-stroke" class="st4" d="M763.3,202.6c6.8,1.2,13.3,2.9,19.5,4.9c3.1,1,7.5,2.2,10.5,1.5
		c7.5-1.8,5.1-8.7,1.9-13.3c-4-5.8-7.9-11.7-11.7-17.8c-0.3-0.5-0.2-1.1,0.3-1.4c0.1,0,0.2-0.1,0.3-0.1c6.9-2,13.7-3.8,20.2-5.6
		c4.7-1.3,12.6-4,12.2-9.7c-0.4-5.6-10.8-10.3-15.3-12.1c-6.4-2.7-13.1-5.4-20.1-8.2c-0.6-0.2-0.9-0.9-0.7-1.5c0,0,0,0,0-0.1
		c0.9-1.9,1.9-3.7,2.9-5.4c3.7-6,7-12.2,10-18.6c1.5-3.2,2.6-6.4,3.3-9.6c1.4-6.4-5-7.8-9.7-6.7c-10.3,2.4-21,5.7-32.1,9.9
		c-0.4,0.1-0.6,0-0.7-0.4c-2.9-11.2-5.7-22-8.5-32.4c-1.4-5.2-4.4-12.8-11.2-10c-3.7,1.5-6,6.2-8,9.6c-5.2,9.3-9.8,18.8-13.8,28.6
		c-0.2,0.5-0.7,0.7-1.2,0.5c-0.1,0-0.1-0.1-0.2-0.1c-9.7-6.7-19.7-12.5-29.8-17.6c-2-1-4-1.6-6.1-1.8c-4.6-0.5-7.2,3.1-6.9,7.3
		c0.1,1.8,0.4,3.6,0.9,5.4c3,10.9,6.1,20.5,9.4,29c0.2,0.5,0,1-0.5,1.2c0,0-0.1,0-0.1,0c-8.9,2-17.1,4-24.6,6
		c-3.2,0.9-6.4,2-9.6,3.4c-6.4,2.8-6.4,9-1.4,12.9c1.7,1.3,3.6,2.5,5.5,3.7c9,5.2,17.5,10.5,27.7,14.8c1.6,0.7,3.4,0.2,5.2-1.6"/>
	<path vector-effect="non-scaling-stroke" class="st5" d="M763.3,202.6l-8.4-10.6"/>
	<path vector-effect="non-scaling-stroke" class="st6" d="M754.9,191.9c1.7-0.3,3.3-0.4,4.6-0.1c6.7,1.4,13.4,2.8,20,4
		c0.2,0,0.4-0.1,0.5-0.3c0-0.1,0-0.2,0-0.2c-1.4-3.1-3.2-5.9-5.4-8.4c-4.1-4.7-7.6-9.3-10.7-13.6c-0.3-0.5-0.2-1.1,0.2-1.4
		c0.1-0.1,0.2-0.1,0.3-0.2c6.9-1.7,13.7-3.7,20.4-6.1c3.4-1.2,6.8-2.8,10-4.7c0.2-0.2,0.3-0.5,0.2-0.7c-0.1-0.1-0.2-0.2-0.3-0.2
		c-9.7-3.7-19-7.6-27.9-11.7c-1.2-0.6-1.9-2-1.5-3.2c1.2-4,2.7-7.8,4.7-11.5c3.2-6,6.6-12.2,10-18.6c0.2-0.3,0-0.7-0.3-0.8
		c0,0,0,0,0,0c-0.3-0.2-0.7-0.2-1.1-0.1c-8.2,2.3-16.2,4.5-24.1,6.6c-2.2,0.6-4.6,0.9-7.4,1c-1.2,0-2.3-0.8-2.6-1.9
		c-3-10.5-6.1-20.8-9.1-31.1c-0.1-0.4-0.4-0.8-0.7-1.2c-0.2-0.2-0.6-0.2-0.8,0c-0.1,0.1-0.1,0.1-0.1,0.2c-4.7,9.8-9,19.4-13,28.8
		c-0.7,1.6-1.6,3.1-2.6,4.6c-0.3,0.4-0.6,0.5-1,0.3c-3-1.3-5.9-2.7-8.6-4.4c-7.3-4.4-14.5-8.8-21.8-13.4c-1.3-0.8-1.9-0.5-1.9,1.1
		c0,0.8,0.1,1.5,0.3,2.3c2.4,8.5,4.9,17.1,7.4,25.7c0.4,1.4,0.6,2.9,0.4,4.4c0,0.5-0.4,0.9-0.8,1c-4.9,1.2-9.9,2.2-15,3.1
		c-5.6,1-11.1,2.6-16.6,3.9c-1.6,0.4-1.7,1-0.3,1.8c6.4,3.7,12.7,7.5,19.1,11.5c1.3,0.8,2.3,1.9,3,3.3c0.1,0.3,0.2,0.6,0.1,0.9
		l-1.5,4.7"/>
	<path vector-effect="non-scaling-stroke" class="st7" d="M754.9,191.9l-10.8-8.1"/>
	<path vector-effect="non-scaling-stroke" class="st8" d="M587,884.4c-26.4,13.5-53.3,23.2-81,29.1c-31.9,6.8-64.8,8.2-98.5,4.2
		c-28-3.4-56.7-11.2-86-23.6c-3.9-1.6-9.7-4.5-17.3-8.4"/>
	<path vector-effect="non-scaling-stroke" class="st9" d="M682.9,198.9c-0.1,0.7-0.1,1.3,0,1.6c1.2,3,2.5,6.1,3.6,9.3
		c0.3,0.9,1.2,1.5,2.2,1.5c5.3-0.3,10.8-0.1,16.5,0.5c0.5,0,1-0.3,1.1-0.8l2.2-11.1"/>
	<path vector-effect="non-scaling-stroke" class="st2" d="M708.4,200l5.2-13.2c0.3-0.6,0-1-0.6-1.2c-6.9-1.6-13.7-2.9-20.9-2.4
		c-5.7,0.4-11.1,1.5-16.1,3.3c-0.3,0.1-0.5,0.5-0.4,0.8c0,0,0,0.1,0.1,0.1l7.2,11.4"/>
	<path vector-effect="non-scaling-stroke" class="st10" d="M708.4,200c-8.1-2.3-16.3-2.8-24.7-1.5c-0.3,0.1-0.6,0.2-0.9,0.4"/>
	<path vector-effect="non-scaling-stroke" class="st9" d="M718.8,204.8c-0.8,2.3-2.6,10.2,0.1,12.2c4.5,3.3,8.9,6.9,13.1,10.8
		c0.7,0.6,1.7,0.6,2.3,0l8.3-7.9"/>
	<path vector-effect="non-scaling-stroke" class="st2" d="M742.6,219.8c3.5-1.9,7.1-2.9,10.9-3.1c0.3,0,0.6-0.3,0.6-0.6
		c0-0.1,0-0.2-0.1-0.3c-6.2-9.7-16.9-21.9-27.8-24.4c-0.4-0.1-0.9,0.1-1.2,0.4c-1.9,2.4-3.8,4-4.7,7.2c-0.5,1.9-1,3.8-1.5,5.7"/>
	<path vector-effect="non-scaling-stroke" class="st10" d="M742.6,219.8c-3.1-0.1-5.1-2.4-7.4-4.1c-1.2-0.9-2.5-1.8-4-2.7
		c-4.2-2.6-8.4-5.3-12.3-8.3"/>
	<path vector-effect="non-scaling-stroke" class="st9" d="M648.8,216.9l8.4,9.4c0.6,0.6,1.5,0.7,2.1,0.2c5.1-4,10.6-7.3,16.6-9.9
		c1.2-0.5,1.8-1.9,1.3-3.1c0,0,0,0,0,0l-4.3-9.9"/>
	<path vector-effect="non-scaling-stroke" class="st2" d="M672.8,203.5c-2.1-4.6-5.2-8-9-10.1c-0.6-0.3-1.3-0.3-1.9,0
		c-8,4.4-15.4,9.4-22.1,15.2c-0.3,0.3-0.4,0.8-0.1,1.1c0,0,0.1,0.1,0.1,0.1l9,7.1"/>
	<path vector-effect="non-scaling-stroke" class="st10" d="M672.8,203.5c-6.5,2.7-10.6,4.7-12.4,5.9c-3.8,2.5-7.6,5-11.6,7.5"/>
	<path vector-effect="non-scaling-stroke" class="st9" d="M621.3,245.9l13.2,5.4c0.5,0.2,1,0,1.4-0.4l12.4-17c0.2-0.3,0.3-0.7,0.1-1
		c-2.1-4-5-6.9-8.8-8.6"/>
	<path vector-effect="non-scaling-stroke" class="st2" d="M639.5,224.2c-2.8-2.6-5.9-4.6-9.3-5.9c-0.4-0.2-0.8-0.1-1.1,0.3
		c-6.6,7.5-12.8,15.4-18.4,23.6c-0.2,0.4-0.1,0.8,0.2,1.1c0.1,0,0.2,0.1,0.2,0.1l10.2,2.5"/>
	<path vector-effect="non-scaling-stroke" class="st10" d="M639.5,224.2c0,0.6-0.2,1-0.6,1.4c-4.9,5.3-10.7,12.1-17.6,20.3"/>
	<path vector-effect="non-scaling-stroke" class="st9" d="M747.2,229.8l-6.3,5.4c-1.4,1.2-1.8,3.2-1,4.8c1.3,2.6,2.8,5.5,4.4,8.6
		c1.3,2.5,1.6,5.1,2.3,7.8c0.1,0.5,0.6,0.7,1,0.6c0.1,0,0.2-0.1,0.3-0.1c4-2.8,8.5-4.6,13.6-5.3"/>
	<path vector-effect="non-scaling-stroke" class="st8" d="M761.6,251.5l8.8,0.4c0.3,0,0.5-0.1,0.4-0.5c-0.4-1.8-1.1-3.3-2.2-4.2"/>
	<path vector-effect="non-scaling-stroke" class="st2" d="M768.6,247.2c-2.2-6.6-4.8-12.8-7.9-18.7c-0.2-0.3-0.4-0.6-0.8-0.7
		c-0.6-0.3-1.4-0.4-2.3-0.4"/>
	<path vector-effect="non-scaling-stroke" class="st8" d="M757.7,227.4c-3.7-0.3-7.5-0.4-10.5,2.4"/>
	<path vector-effect="non-scaling-stroke" class="st3" d="M757.7,227.4l-0.7,0.1c-0.4,0.1-0.5,0.3-0.3,0.6l11.9,19"/>
	<path vector-effect="non-scaling-stroke" class="st11" d="M761.6,251.5c-2.3,0.4-3.9-0.4-4.9-2.3c-3.2-6.5-6.4-13-9.5-19.5"/>
	<path vector-effect="non-scaling-stroke" class="st9" d="M599.3,283.9l12.8,2.5c0.6,0.1,1.2-0.2,1.5-0.7l13.9-23.5
		c0.3-0.5,0.2-0.8-0.3-1l-11.9-5.4"/>
	<path vector-effect="non-scaling-stroke" class="st2" d="M615.3,255.8c-2.9-0.9-5.9-1.3-8.9-1.2c-2.2,0.1-3.4-0.9-4.9,1.6
		c-5.3,9-11,18.8-14.6,28.6c-0.1,0.4,0,0.5,0.4,0.5l12-1.2"/>
	<path vector-effect="non-scaling-stroke" class="st10" d="M615.3,255.8c-0.2,1.1-0.3,1.8-1,2.7c-6.1,7.9-11.1,16.4-15,25.5"/>
	<path vector-effect="non-scaling-stroke" class="st9" d="M759.1,263.6c-3.2,0.7-6,2.4-8.3,5c-0.7,0.9-0.9,1.8-0.6,2.9
		c1.6,4.8,2.4,9.6,2.5,14.4c0,0.4,0.3,0.7,0.7,0.7c0.1,0,0.3-0.1,0.4-0.1c4-3.1,8.8-4.4,14.2-4"/>
	<path vector-effect="non-scaling-stroke" class="st12" d="M768.2,282.4l7.9,2.4c0.8,0.2,1.2-0.1,1.1-0.9c-0.4-3.5-0.8-7.2-1.2-11
		c-1-9.3-9-11-16.9-9.4"/>
	<path vector-effect="non-scaling-stroke" class="st13" d="M768.2,282.4h-6.9c-0.8,0-1.5-0.5-1.6-1.3c-1.4-5.9-1.6-11.8-0.5-17.5"/>
	<path vector-effect="non-scaling-stroke" class="st14" d="M467.6,376.1c3.7,6.7,8.5,13.7,14.4,20.9"/>
	<path vector-effect="non-scaling-stroke" class="st15" d="M482,397c4.9,6.7,10.9,13.3,18.2,19.8c0.9,0.8,1.8,1.5,2.9,2.3
		c3.5,2.6,7.2,5.2,11,7.9c4.2,2.9,7.9,6.1,12,9c1.6,1.2,3,0.9,4-0.8c3.8-6,7.7-12.3,11.7-18.9c2.5-4.1,4.9-7.8,7.2-11.2
		c2.7-4,5-7.8,6.9-11.3c3.7-6.7,7.9-13.8,12.8-21.1c1.2-1.8,2.3-3.7,3.3-5.6c0.6-1.3,2-1.6,3.3-1.4"/>
	<path vector-effect="non-scaling-stroke" class="st9" d="M575.2,365.7c9.8,6.4,20.4,11.2,31.8,14.5c1,0.3,2,1.1,2.9,1.4
		c5.9,1.7,12.3,4,18,4.4c3.2,0.3,6.8,0.2,10.9-0.1c3-0.3,5.5-1.3,7.5-3.2c3.5-3.2,4-7.7,1.6-13.5"/>
	<path vector-effect="non-scaling-stroke" class="st12" d="M648,369.1c-0.8-3.2-2.1-6.2-4-9.2c-8.1-13.2-18.6-23.8-29.9-34.2
		c-0.7-0.7-1.4-0.6-1.8,0.3c-1.5,2.6-2.6,5.3-3.4,8c-0.1,0.4-0.1,0.9,0.2,1.3c1.7,2.8,2.1,5.5,1.2,8.2c-1.2,3.9-4,5.7-8.4,5.3
		c-8.2-0.8-15.8-3.2-22.8-7.4"/>
	<path vector-effect="non-scaling-stroke" class="st2" d="M579.1,341.5c-12.1-6.4-22-15-29.5-25.6"/>
	<path vector-effect="non-scaling-stroke" class="st12" d="M549.6,315.9c1.5-6.3,2.8-9.8,10.1-7.5c0.5,0.2,1.1-0.1,1.4-0.6l2.8-6.8"
		/>
	<path vector-effect="non-scaling-stroke" class="st2" d="M563.9,301c0.3-1.1,0.3-1.7,0-1.8c-15.9-7.9-37.4-14.8-54.9-9.5
		c-3.8,1.2-6.5,3.2-8,6.1c-4.4,8.2-8.7,16-12.9,23.5c-5.6,9.7-12.7,22.7-21.4,39.2c-0.5,0.9-1.3,2.8-2.6,5.8c-0.7,1.6-0.6,2.8,0,4.3
		c1.1,2.4,2.3,4.9,3.5,7.4"/>
	<path vector-effect="non-scaling-stroke" class="st16" d="M563.9,301c-3.9-1.4-7.7-1.9-11.5-1.3c-4.3,0.7-7.4,3.6-6.5,8.1
		c0.4,2.1,1.6,4.7,3.7,8.1"/>
	<path vector-effect="non-scaling-stroke" class="st16" d="M579.1,341.5c0.9,1,1.9,1.9,3.1,2.6c1.7,1.1,2.8,1.8,3.3,2.2
		c9.1,7.5,18.4,15.2,27.7,23.1c0.3,0.3,0.5,0.7,0.4,1.1c0,0.2-0.4,0.2-1.1,0.1"/>
	<path vector-effect="non-scaling-stroke" class="st10" d="M612.6,370.7c-30.4-9.2-57.9-24-82.4-44.3"/>
	<path vector-effect="non-scaling-stroke" class="st16" d="M530.2,326.3l-10.8-9.3c-0.2-0.2-0.5-0.2-0.7,0.1c0,0,0,0.1-0.1,0.1
		l-0.2,0.4c-0.1,0.2-0.1,0.3,0.1,0.5c3.6,2.9,5.8,5.3,6.7,7.2c1.1,2.3,0.7,3.2-1.3,2.8"/>
	<path vector-effect="non-scaling-stroke" class="st17" d="M524,328c-5.9-5.2-11.4-10.5-16.2-16.1c-0.7-0.8-1.9-0.9-2.8-0.2
		c-0.2,0.1-0.3,0.3-0.4,0.5l-36.9,63.9"/>
	<path vector-effect="non-scaling-stroke" class="st13" d="M648,369.1c1.3,11.2-10.4,9.9-17.2,8.5c-6.6-1.4-12.7-3.7-18.2-7"/>
	<path vector-effect="non-scaling-stroke" class="st18" d="M524,328c-0.4,0.7-0.2,1.5,0.6,2.4"/>
	<path vector-effect="non-scaling-stroke" class="st19" d="M524.6,330.4c-0.8-0.2-1.4-0.1-1.6,0.2c-8,12.9-15.9,25.7-24,38.6
		c-1,1.7-3.8,6.3-8.3,14.1c-2.7,4.7-5.6,9.3-8.8,13.8"/>
	<path vector-effect="non-scaling-stroke" class="st20" d="M575.2,365.7c-4.8-2.7-9.7-5.4-14.5-8.1c-2-1.1-4.4-2.8-7.2-5"/>
	<path vector-effect="non-scaling-stroke" class="st13" d="M530.2,326.3l-0.4,0.1c-0.4,0.1-0.6,0.3-0.6,0.6c0,0.4,0.1,0.8,0.4,1.2
		c1,1.3,2.2,2.5,3.4,3.6c3.2,2.8,6.4,5.6,9.6,8.5c1.2,1.1,1.9,2.5,3.4,3.3c0.3,0.2,0.6,0.5,0.7,0.8c0.2,0.8,0.5,1.2,1.3,1.6
		c2,1,3.8,2.3,5.5,3.7c0.6,0.5,1.3,1,1.9,1.4c0.8,0.5,1.6,1.1,2.3,2c0.2,0.2,0.2,0.5,0.1,0.8c-0.2,0.4-0.4,0.5-0.8,0.3
		c-0.6-0.3-1.1-0.7-1.5-1.2c-0.2-0.3-0.5-0.4-0.9-0.4l-1,0"/>
	<path vector-effect="non-scaling-stroke" class="st21" d="M553.5,352.6c-10-6.9-19.7-14.3-28.9-22.2"/>
	<path vector-effect="non-scaling-stroke" class="st12" d="M756.8,315.8c7.8-2.9,15-2.4,21.5,1.4c0.4,0.2,0.6,0.1,0.6-0.3l-0.1-16.6
		c0-0.8-0.3-1.6-0.9-2.2c-6.5-6.9-17.4-7.7-22.9,0.9c-0.9,1.4-1.3,2.9-1.2,4.6c0.3,4.6,0.3,8.9,0.1,12.8c0,0.6,0.2,0.8,0.8,0.6
		C755.4,316.8,755.9,316.1,756.8,315.8"/>
	<path vector-effect="non-scaling-stroke" class="st2" d="M592.3,296c-5.2,0.9-9.6,2.3-13.2,4.1c-0.3,0.1-0.5,0.4-0.6,0.7l-6.3,17
		c-0.3,0.9-0.1,1.6,0.8,2.1l6.1,3.5"/>
	<path vector-effect="non-scaling-stroke" class="st9" d="M579.1,323.5c1.5,1.5,2.9,2.6,4.1,3.1c2.8,1.3,6.1,2.9,9.9,4.6
		c1,0.4,1.6,0.2,2-0.8l12.6-32.1c0.3-0.7-0.1-1.4-0.7-1.7c0,0-0.1,0-0.1,0c-5.6-1.5-10.4-1.7-14.6-0.5"/>
	<path vector-effect="non-scaling-stroke" class="st10" d="M579.1,323.5c1.4,0.3,2.4-0.2,2.8-1.4c0.5-1.4,0.8-2.3,0.9-2.5
		c0.8-1.5,1.5-3,2-4.7c0.6-1.8,1.2-3.4,1.9-4.6c2.5-4.5,4.3-9.2,5.6-14.3"/>
	<path vector-effect="non-scaling-stroke" class="st9" d="M754.3,354.9c1.8,4.5,4.7,7.4,8.7,8.9c4,1.4,8.3-0.1,11.7-2.4
		c2-1.4,3-2.9,3-4.5"/>
	<path vector-effect="non-scaling-stroke" class="st14" d="M777.7,356.9c0.9-1.7,1.3-3.3,1.3-4.7c0-6.8,0-13.7,0-20.6
		c0-0.5-0.2-0.9-0.5-1.3c-3.1-3.9-6.8-6.1-11.1-6.7c-4.7-0.6-9.8,1.2-12.9,4.7c-0.6,0.6-0.9,1.5-0.8,2.3l0.6,24.3"/>
	<path vector-effect="non-scaling-stroke" class="st22" d="M777.7,356.9c-1.4-7.9-6.1-11.4-13.9-10.3c-2.5,0.3-4.1,1.1-4.9,2.3
		c-1.4,2.2-2.9,4.2-4.6,6"/>
	<path vector-effect="non-scaling-stroke" class="st15" d="M208.1,748.7c4.5,10.6,9.1,19.1,14,25.6c2.5,3.3,5.3,7.5,7.2,9.9
		c11,14.2,23.2,27.2,36.6,39.1c3.4,3,7.3,5.6,10.9,8.5c5.7,4.5,11.8,8.4,17.7,12.6c3,2.1,6.1,4.1,9.3,6c9,5.3,18.2,10.2,27.7,14.7
		c3.2,1.5,6.7,2.8,10.4,3.9c3.5,1,7,2.1,10.6,3.4c7.5,2.6,14.4,4.7,20.8,6.1c4,0.9,8.2,1.7,12.6,2.4c1,0.2,2,0.4,3,0.9
		c1,0.4,2,0.7,3.1,0.9c0.7,0.1,0.7,0,0.1-0.4c-1.5-1-3-1.7-4.7-2.3c-1.4-0.5-2.8-1.1-4.1-1.9c-3.8-2.2-8.1-3.9-12.1-6.1
		c-1.2-0.7-2.7-1.4-4.5-2.2c-4.3-1.9-9-4.5-13.9-7.8c-3.6-2.4-7.6-4.2-11.3-6.7c-2.6-1.8-5.4-3.6-8.2-5.3c-4.4-2.6-8.7-5.5-12.7-8.7
		c-2.6-2-5-3.7-7.2-5.1c-3.5-2.2-5.9-3.8-7.3-4.9c-11.7-9.4-22.5-19.2-32.3-29.5c-3.5-3.6-6.6-7.6-9.8-11.6c-2.5-3-4.6-6.1-6.5-9.3
		c-3.3-5.6-6.6-10.9-9.9-16c-1.1-1.6-2-3.3-2.8-4.9c-0.9-1.9-1.9-3.7-2.9-5.2c-3.4-5.3-6.5-10.8-9.4-16.6c-0.2-0.4-0.1-0.6,0.4-0.7
		c0.1,0,0.3,0,0.4,0.1c4.7,4,8.7,8.6,13.7,12c2.9,2,5.8,4.1,8.8,6.3c2.9,2.1,5.7,4,8.3,5.5c6.3,3.7,12.4,7.1,18.5,10.3
		c5,2.7,10.5,5,16.6,7.1c6.9,2.3,12.9,4.3,18,5.8c9.1,2.7,19.6,4.7,31.4,6c3.9,0.4,7.8,0.5,11.6,0.9c2.9,0.3,5.7,0.5,8.7,0.5
		c11.1,0.1,22.1-0.4,33.2-1.4c6.9-0.7,13.4-2.7,20.2-4c7.6-1.5,15.8-3.7,24.7-6.4c5.2-1.6,10-3.3,14.5-5c4.8-1.9,9.5-3.9,14.1-6
		c4.3-2,8.3-4.2,12.1-6.8c2.6-1.7,5.5-2.6,8-4.4c1.4-1,2.7-1.9,4.2-2.8c15.2-9.4,28.7-19.8,40.3-31c11.8-11.4,22.8-24.7,33.1-40
		c2.5-3.8,4.9-7.5,7.1-11.3c3.4-5.8,5.7-9.7,6.7-11.9c6.5-13.1,12.2-27.5,17.2-43c0.4-1.4,0.8-2.8,1.2-4.4c0.3-1.5,0.6-3,1-4.5
		c2.2-9.4,4-18.5,5.5-27.5c1.3-8,2-15.2,2.2-21.5c0.4-17.1,0.4-35.5-3-51.8c-1.7-8.2-3.5-16.3-5.9-24.4c-0.7-2.5-2.1-4.3-4.8-4.7
		c-11.7-1.9-23.1-5.5-34.1-10.7c-4.8-2.3-7.3-3.5-7.7-3.6c-3.1-1.4-6.3-3-9.3-4.7c-14.8-8.3-26.6-15.6-35.4-21.8
		c-5.2-3.7-10.5-7.6-15.8-11.8c-2.8-2.2-5.3-4.7-8-6.9c-2.3-1.9-4-4.1-6.2-6c-3-2.5-6.6-6.3-8.5-8.8c-3.7-5.2-7.2-8.9-10.4-11.2"/>
	<path vector-effect="non-scaling-stroke" class="st9" d="M464.6,393.9c-2.8-4.8-5.7-9.6-8.7-14.5c-2.3-3.8-4.3-7.6-6-11.3
		c-0.5-1.1-1.6-1.9-2.9-1.9l-4.7-0.1"/>
	<path vector-effect="non-scaling-stroke" class="st2" d="M442.5,366c-12-0.3-24-0.1-36,0.7c-7.4,0.5-14.3,1.4-20.7,2.7
		c-7.1,1.4-14.4,3.2-21.9,5.2c-14.2,3.8-29.4,10.1-45.8,18.8c-19.1,10.2-36.7,22.6-52.8,37.3c-20.8,19-39,41.2-53.2,65.7
		c-3.6,6.1-6,10.5-7.3,13.1c-7.1,13.8-13.1,29-18.2,45.8c-10.8,35.6-12.6,74.4-6.6,111c2.7,16.2,6.2,31.6,12.4,46.8
		c2.4,5.9,4.8,11.7,7.3,17.6c2.6,6.1,5.4,12.1,8.5,17.9"/>
	<path vector-effect="non-scaling-stroke" class="st10" d="M442.5,366c0.5,0,0.9,0,1.2,0.1c0.6,0.2,0.5,0.3-0.1,0.3
		c-14.9,0.6-30,3.1-45.2,7.4c-17.6,5-34.2,10.6-49.7,16.8c-10.2,4.1-20.4,9.9-30.1,15.5c-34.5,19.9-63.8,47.8-86.4,80.8
		C228,493,223.6,500,219,508c-4.1,7-9,17.6-14.7,31.7c-7.9,19.4-13.3,39.4-16.2,60.1"/>
	<path vector-effect="non-scaling-stroke" class="st23" d="M188.1,599.7c-2.3,20-2.7,39.9-1.2,59.9c0.5,6.4,1.4,13.7,2.7,21.8
		c2.1,12.7,4,22.7,5.8,29.8c2.5,9.8,4.3,16.2,5.6,19.4c2.4,6,4.8,12,7.1,18"/>
	<path vector-effect="non-scaling-stroke" class="st20" d="M464.6,393.9c1.8,5.4,4.5,10.6,6.6,15c1.1,2.4,2.3,4.6,3.5,6.8
		c1.6,2.8,2.6,5.3,2.9,7.4c0.7,4.2,0.8,9.1,0.4,14.6c-0.5,6.5-1.3,12.3-2.4,17.4c-1.2,5.8-3.1,12.7-5.6,20.5
		c-3.2,9.9-8.3,21-15.4,33.2c-4.9,8.4-10.6,16.8-17,25c-2.3,3-4.7,6-6.9,8.9c-2,2.6-3.9,4.9-5.8,7.1c-2,2.3-4.1,4.6-6.2,6.8
		c-9.9,10.2-20.2,19.4-31.1,27.6c-14.8,11.2-31.5,20.8-50.1,28.7c-23.8,10.2-48.6,14.9-74.5,14.3c-11.1-0.3-21.4-1.8-31-4.7
		c-9.6-2.8-18.8-6.8-27.6-11.9c-2.7-1.6-5.3-3.4-7.7-5.6c-2.5-2.2-5-4.4-7.3-6.6c-0.3-0.3-0.5-0.2-0.8,0.1c-0.2,0.2-0.4,0.6-0.5,1.1
		"/>
	<path vector-effect="non-scaling-stroke" class="st10" d="M451.6,407.3c-3.3-5.6-11.1-7.1-17.5-3.4c0,0,0,0,0,0
		c-6.4,3.8-8.9,11.3-5.6,17c0,0,0,0,0,0c3.3,5.6,11.1,7.1,17.5,3.4c0,0,0,0,0,0C452.3,420.5,454.9,413,451.6,407.3"/>
	<path vector-effect="non-scaling-stroke" class="st10" d="M385,411.6c-4.3-10-17.7-8.8-25.9-4.7c-9.4,4.6-19.6,14.4-15.5,25.9
		c1.5,4.1,4.2,6.6,8.1,7.5c11.1,2.4,27.3-6.1,32.6-16.5C386.5,419.7,386.7,415.6,385,411.6"/>
	<path vector-effect="non-scaling-stroke" class="st10" d="M227.7,564.4c14.5,9.6,44.9-10.7,68-45.3c0,0,0,0,0,0
		c23-34.7,30-70.6,15.5-80.2c-14.5-9.6-44.9,10.7-68,45.3l0,0C220.2,518.9,213.3,554.8,227.7,564.4"/>
</g>
<path class="st24" d="M763.3,202.6l-8.4-10.6c1.7-0.3,3.3-0.4,4.6-0.1c6.7,1.4,13.4,2.8,20,4c0.2,0,0.4-0.1,0.5-0.3
	c0-0.1,0-0.2,0-0.2c-1.4-3.1-3.2-5.9-5.4-8.4c-4.1-4.7-7.6-9.3-10.7-13.6c-0.3-0.5-0.2-1.1,0.2-1.4c0.1-0.1,0.2-0.1,0.3-0.2
	c6.9-1.7,13.7-3.7,20.4-6.1c3.4-1.2,6.8-2.8,10-4.7c0.2-0.2,0.3-0.5,0.2-0.7c-0.1-0.1-0.2-0.2-0.3-0.2c-9.7-3.7-19-7.6-27.9-11.7
	c-1.2-0.6-1.9-2-1.5-3.2c1.2-4,2.7-7.8,4.7-11.5c3.2-6,6.6-12.2,10-18.6c0.2-0.3,0-0.7-0.3-0.8c0,0,0,0,0,0
	c-0.3-0.2-0.7-0.2-1.1-0.1c-8.2,2.3-16.2,4.5-24.1,6.6c-2.2,0.6-4.6,0.9-7.4,1c-1.2,0-2.3-0.8-2.6-1.9c-3-10.5-6.1-20.8-9.1-31.1
	c-0.1-0.4-0.4-0.8-0.7-1.2c-0.2-0.2-0.6-0.2-0.8,0c-0.1,0.1-0.1,0.1-0.1,0.2c-4.7,9.8-9,19.4-13,28.8c-0.7,1.6-1.6,3.1-2.6,4.6
	c-0.3,0.4-0.6,0.5-1,0.3c-3-1.3-5.9-2.7-8.6-4.4c-7.3-4.4-14.5-8.8-21.8-13.4c-1.3-0.8-1.9-0.5-1.9,1.1c0,0.8,0.1,1.5,0.3,2.3
	c2.4,8.5,4.9,17.1,7.4,25.7c0.4,1.4,0.6,2.9,0.4,4.4c0,0.5-0.4,0.9-0.8,1c-4.9,1.2-9.9,2.2-15,3.1c-5.6,1-11.1,2.6-16.6,3.9
	c-1.6,0.4-1.7,1-0.3,1.8c6.4,3.7,12.7,7.5,19.1,11.5c1.3,0.8,2.3,1.9,3,3.3c0.1,0.3,0.2,0.6,0.1,0.9l-1.5,4.7
	c-1.8,1.7-3.6,2.3-5.2,1.6c-10.2-4.3-18.7-9.7-27.7-14.8c-1.9-1.1-3.8-2.3-5.5-3.7c-5-3.9-5-10.1,1.4-12.9c3.2-1.4,6.4-2.5,9.6-3.4
	c7.5-2,15.7-4,24.6-6c0.5-0.1,0.8-0.6,0.7-1.1c0,0,0-0.1,0-0.1c-3.3-8.5-6.4-18.1-9.4-29c-0.5-1.8-0.8-3.6-0.9-5.4
	c-0.3-4.3,2.3-7.9,6.9-7.3c2.1,0.2,4.1,0.8,6.1,1.8c10.2,5.1,20.1,10.9,29.8,17.6c0.4,0.3,1,0.2,1.2-0.2c0-0.1,0.1-0.1,0.1-0.2
	c4-9.8,8.5-19.3,13.8-28.6c2-3.5,4.2-8.1,8-9.6c6.8-2.8,9.8,4.8,11.2,10c2.8,10.4,5.6,21.2,8.5,32.4c0.1,0.4,0.4,0.5,0.7,0.4
	c11.1-4.2,21.8-7.5,32.1-9.9c4.7-1.1,11.1,0.3,9.7,6.7c-0.7,3.2-1.8,6.4-3.3,9.6c-3,6.4-6.4,12.6-10,18.6c-1,1.7-2,3.5-2.9,5.4
	c-0.3,0.6,0,1.3,0.6,1.5c0,0,0,0,0.1,0c7,2.8,13.6,5.5,20.1,8.2c4.5,1.9,14.9,6.5,15.3,12.1c0.4,5.8-7.5,8.5-12.2,9.7
	c-6.5,1.8-13.3,3.6-20.2,5.6c-0.5,0.1-0.8,0.7-0.7,1.2c0,0.1,0.1,0.2,0.1,0.3c3.9,6.1,7.8,12,11.7,17.8c3.2,4.6,5.5,11.4-1.9,13.3
	c-3.1,0.7-7.5-0.5-10.5-1.5C776.5,205.4,770,203.8,763.3,202.6z"/>
<path class="st25" d="M754.9,191.9l-10.8-8.1l19.1-0.6c0.5,0,0.8-0.3,0.8-0.7c0-0.4-0.1-0.8-0.5-1.1c-5.2-3.7-10.1-7.7-14.8-11.8
	c-0.3-0.2-0.3-0.6-0.1-0.9c0.1-0.1,0.1-0.1,0.2-0.2c5.9-2.4,11.7-4.9,17.5-7.6c0.3-0.1,0.5-0.3,0.8-0.6c0.4-0.4,0.4-1.1,0-1.5
	c-0.1-0.1-0.2-0.2-0.4-0.2l-16.2-6.7c-0.4-0.2-0.4-0.4-0.2-0.7c3.4-4.5,6.9-9.6,7.4-15.3c0.1-0.8-0.5-1.4-1.3-1.5
	c-0.2,0-0.4,0-0.5,0.1c-5.7,1.9-11.1,4.1-16.4,6.7c-0.5,0.2-1.1,0-1.4-0.5c0,0,0-0.1-0.1-0.1l-5.8-18.3c-0.1-0.5-0.4-0.6-0.8-0.3
	c-0.7,0.4-1.2,1-1.6,1.8c-2.5,5.5-5.4,10.8-8.6,15.8c-0.7,1.1-1.5,1.2-2.3,0.2c-4.7-5.4-9.9-10.2-15.6-14.6
	c-0.3-0.2-0.7-0.2-0.9,0.1c-0.1,0.1-0.1,0.2-0.1,0.4c-0.4,7.8,0.2,14.6,1.6,20.4c0.1,0.5-0.1,0.8-0.6,0.9c-5.1,0.4-10,1-14.6,2
	c-2.1,0.4-3.9,1.1-5.6,2.1c-0.5,0.3-0.6,0.9-0.3,1.4c0.1,0.2,0.2,0.3,0.4,0.4c4.3,2.5,8.3,4.9,11.9,7.3c1.3,0.9,2.4,1.9,3.4,3
	c0.3,0.4,0.3,1-0.1,1.4c-0.1,0.1-0.3,0.2-0.5,0.2l-17.1,2.7l1.5-4.7c0.1-0.3,0.1-0.6-0.1-0.9c-0.7-1.4-1.7-2.5-3-3.3
	c-6.3-4-12.7-7.8-19.1-11.5c-1.4-0.8-1.4-1.4,0.3-1.8c5.5-1.3,11-3,16.6-3.9c5.1-0.9,10-1.9,15-3.1c0.5-0.1,0.8-0.5,0.8-1
	c0.1-1.5,0-2.9-0.4-4.4c-2.5-8.7-5-17.2-7.4-25.7c-0.2-0.8-0.3-1.5-0.3-2.3c0-1.5,0.7-1.9,1.9-1.1c7.3,4.6,14.6,9,21.8,13.4
	c2.7,1.6,5.6,3.1,8.6,4.4c0.4,0.2,0.8,0.1,1-0.3c1.1-1.5,2-3,2.6-4.6c3.9-9.5,8.3-19.1,13-28.8c0.1-0.3,0.5-0.4,0.8-0.3
	c0.1,0,0.1,0.1,0.2,0.1c0.3,0.3,0.5,0.7,0.7,1.2c3,10.3,6.1,20.6,9.1,31.1c0.3,1.2,1.4,2,2.6,1.9c2.7-0.1,5.2-0.4,7.4-1
	c7.9-2.1,16-4.3,24.1-6.6c0.4-0.1,0.7-0.1,1.1,0.1c0.3,0.1,0.5,0.5,0.3,0.8c0,0,0,0,0,0c-3.4,6.3-6.7,12.5-10,18.6
	c-2,3.7-3.5,7.5-4.7,11.5c-0.4,1.3,0.2,2.7,1.5,3.2c8.9,4.1,18.2,8,27.9,11.7c0.3,0.1,0.4,0.4,0.3,0.7c0,0.1-0.1,0.2-0.2,0.3
	c-3.2,1.9-6.5,3.5-10,4.7c-6.7,2.4-13.5,4.4-20.4,6.1c-0.5,0.1-0.9,0.7-0.7,1.2c0,0.1,0.1,0.2,0.2,0.3c3.1,4.4,6.6,8.9,10.7,13.6
	c2.2,2.5,4,5.4,5.4,8.4c0.1,0.2,0,0.4-0.2,0.5c-0.1,0-0.2,0-0.2,0c-6.6-1.3-13.2-2.6-20-4C758.2,191.6,756.6,191.6,754.9,191.9z"/>
<path class="st26" d="M744.1,183.8l10.8,8.1l8.4,10.6c6.1,9.6,10.3,17.1,12.9,22.5c8.8,18.9,14.3,38.4,16.4,58.6
	c0.9,8.5,1.8,17.3,1.9,25.7c0.1,11.9,0.2,24.6,0.3,37.9c0,6.1-0.6,10.8-1.8,14c-6.1,15.9-23.2,23.6-39.1,15.7
	c-6.6-3.3-11.2-8.5-13.7-15.5c-1.2-3.5-1.8-8.1-1.8-13.8c0.1-11.6,0.1-22.9,0-33.9c-0.1-16.1-1.3-31-4.1-46
	c-1.7-9.2-5.3-18-10.8-26.4c-7.2-10.9-21.3-17.6-34.5-14.2c-6.8,1.8-13,4.8-18.6,9.2c-11.2,8.8-20.5,18.8-27.9,30.2
	c-9.1,13.8-16.7,28.4-23.1,43.7c-0.1,0.2,0,0.5,0.2,0.6c6.2,5.2,12.3,10.2,18.2,15.1c10.8,9.1,20.2,19.7,28.2,32
	c4.6,7,7.3,14.1,8.2,21.2c1.4,11-3,18.8-8.8,27.5c-4.8,7.3-9.6,14.9-14.4,22.8c-0.3,0.6-0.3,1.3,0.2,1.7
	c26.3,29,46.5,61.5,60.6,97.4c5,12.8,9.6,28.2,13.9,46.1c1.7,7.5,3,14.8,3.9,22c2.5,21.6,2.8,42.3,0.9,62.1
	c-3.7,38.2-14,74.4-31.2,108.6c-14.5,29-33.7,55-57.6,78c-11.5,11-24.6,21-39.4,30c-5,3-10.1,6.1-15.4,9.2
	c-26.4,13.5-53.3,23.2-81,29.1c-31.9,6.8-64.8,8.2-98.5,4.2c-28-3.4-56.7-11.2-86-23.6c-3.9-1.6-9.7-4.5-17.3-8.4
	c-6.2-3.7-13.2-7.1-18.6-10.6c-17.3-10.9-32.8-23.1-46.5-36.6c-14-13.8-25.8-27.5-35.3-41.2c-9.5-13.7-18.5-29.2-26.8-46.5
	c-7.6-15.6-13.7-32.5-18.6-50.7c-1.5-5.6-2.8-11.5-3.8-17.6c-5.2-30.3-6.2-60.2-2.9-89.9c0.9-7.9,2-15.2,3.4-22
	c6.9-32.7,18.3-62.4,34.2-89.3c16.9-28.6,38.8-54.6,65.7-77.8c5.3-4.6,11.2-9.2,17.9-13.8c18.7-13.2,37-23.3,55-30.5
	c21-8.4,41.4-14.2,61.1-17.6c16.3-2.8,36.3-4.5,60.2-5.3c1,0,1.7-0.5,2.2-1.3c10.5-18,20.5-38,31.3-54.3
	c5.5-8.2,13.7-12.8,24.8-13.8c21.9-1.9,44.9,6.2,63.6,16.3c0.4,0.2,0.9,0.1,1.1-0.3c0,0,0,0,0-0.1c4.8-11.1,9.6-22.6,15.9-33
	c6.6-11,12.7-20.1,18.3-27.3c8.2-10.6,17.8-20.3,28.7-29.2c9.5-7.8,19.1-13,29.8-18.3C691.2,162.4,720.9,167.2,744.1,183.8z
	 M682.9,198.9c-0.1,0.7-0.1,1.3,0,1.6c1.2,3,2.5,6.1,3.6,9.3c0.3,0.9,1.2,1.5,2.2,1.5c5.3-0.3,10.8-0.1,16.5,0.5
	c0.5,0,1-0.3,1.1-0.8l2.2-11.1l5.2-13.2c0.3-0.6,0-1-0.6-1.2c-6.9-1.6-13.7-2.9-20.9-2.4c-5.7,0.4-11.1,1.5-16.1,3.3
	c-0.3,0.1-0.5,0.5-0.4,0.8c0,0,0,0.1,0.1,0.1L682.9,198.9z M718.8,204.8c-0.8,2.3-2.6,10.2,0.1,12.2c4.5,3.3,8.9,6.9,13.1,10.8
	c0.7,0.6,1.7,0.6,2.3,0l8.3-7.9c3.5-1.9,7.1-2.9,10.9-3.1c0.3,0,0.6-0.3,0.6-0.6c0-0.1,0-0.2-0.1-0.3c-6.2-9.7-16.9-21.9-27.8-24.4
	c-0.4-0.1-0.9,0.1-1.2,0.4c-1.9,2.4-3.8,4-4.7,7.2C719.8,200.9,719.3,202.8,718.8,204.8z M648.8,216.9l8.4,9.4
	c0.6,0.6,1.5,0.7,2.1,0.2c5.1-4,10.6-7.3,16.6-9.9c1.2-0.5,1.8-1.9,1.3-3.1c0,0,0,0,0,0l-4.3-9.9c-2.1-4.6-5.2-8-9-10.1
	c-0.6-0.3-1.3-0.3-1.9,0c-8,4.4-15.4,9.4-22.1,15.2c-0.3,0.3-0.4,0.8-0.1,1.1c0,0,0.1,0.1,0.1,0.1L648.8,216.9z M621.3,245.9
	l13.2,5.4c0.5,0.2,1,0,1.4-0.4l12.4-17c0.2-0.3,0.3-0.7,0.1-1c-2.1-4-5-6.9-8.8-8.6c-2.8-2.6-5.9-4.6-9.3-5.9
	c-0.4-0.2-0.8-0.1-1.1,0.3c-6.6,7.5-12.8,15.4-18.4,23.6c-0.2,0.4-0.1,0.8,0.2,1.1c0.1,0,0.2,0.1,0.2,0.1L621.3,245.9z M747.2,229.8
	l-6.3,5.4c-1.4,1.2-1.8,3.2-1,4.8c1.3,2.6,2.8,5.5,4.4,8.6c1.3,2.5,1.6,5.1,2.3,7.8c0.1,0.5,0.6,0.7,1,0.6c0.1,0,0.2-0.1,0.3-0.1
	c4-2.8,8.5-4.6,13.6-5.3l8.8,0.4c0.3,0,0.5-0.1,0.4-0.5c-0.4-1.8-1.1-3.3-2.2-4.2c-2.2-6.6-4.8-12.8-7.9-18.7
	c-0.2-0.3-0.4-0.6-0.8-0.7c-0.6-0.3-1.4-0.4-2.3-0.4C754,227.1,750.2,227,747.2,229.8z M599.3,283.9l12.8,2.5
	c0.6,0.1,1.2-0.2,1.5-0.7l13.9-23.5c0.3-0.5,0.2-0.8-0.3-1l-11.9-5.4c-2.9-0.9-5.9-1.3-8.9-1.2c-2.2,0.1-3.4-0.9-4.9,1.6
	c-5.3,9-11,18.8-14.6,28.6c-0.1,0.4,0,0.5,0.4,0.5L599.3,283.9z M759.1,263.6c-3.2,0.7-6,2.4-8.3,5c-0.7,0.9-0.9,1.8-0.6,2.9
	c1.6,4.8,2.4,9.6,2.5,14.4c0,0.4,0.3,0.7,0.7,0.7c0.1,0,0.3-0.1,0.4-0.1c4-3.1,8.8-4.4,14.2-4l7.9,2.4c0.8,0.2,1.2-0.1,1.1-0.9
	c-0.4-3.5-0.8-7.2-1.2-11C775,263.7,767,262,759.1,263.6z M467.6,376.1c3.7,6.7,8.5,13.7,14.4,20.9c4.9,6.7,10.9,13.3,18.2,19.8
	c0.9,0.8,1.8,1.5,2.9,2.3c3.5,2.6,7.2,5.2,11,7.9c4.2,2.9,7.9,6.1,12,9c1.6,1.2,3,0.9,4-0.8c3.8-6,7.7-12.3,11.7-18.9
	c2.5-4.1,4.9-7.8,7.2-11.2c2.7-4,5-7.8,6.9-11.3c3.7-6.7,7.9-13.8,12.8-21.1c1.2-1.8,2.3-3.7,3.3-5.6c0.6-1.3,2-1.6,3.3-1.4
	c9.8,6.4,20.4,11.2,31.8,14.5c1,0.3,2,1.1,2.9,1.4c5.9,1.7,12.3,4,18,4.4c3.2,0.3,6.8,0.2,10.9-0.1c3-0.3,5.5-1.3,7.5-3.2
	c3.5-3.2,4-7.7,1.6-13.5c-0.8-3.2-2.1-6.2-4-9.2c-8.1-13.2-18.6-23.8-29.9-34.2c-0.7-0.7-1.4-0.6-1.8,0.3c-1.5,2.6-2.6,5.3-3.4,8
	c-0.1,0.4-0.1,0.9,0.2,1.3c1.7,2.8,2.1,5.5,1.2,8.2c-1.2,3.9-4,5.7-8.4,5.3c-8.2-0.8-15.8-3.2-22.8-7.4c-12.1-6.4-22-15-29.5-25.6
	c1.5-6.3,2.8-9.8,10.1-7.5c0.5,0.2,1.1-0.1,1.4-0.6l2.8-6.8c0.3-1.1,0.3-1.7,0-1.8c-15.9-7.9-37.4-14.8-54.9-9.5
	c-3.8,1.2-6.5,3.2-8,6.1c-4.4,8.2-8.7,16-12.9,23.5c-5.6,9.7-12.7,22.7-21.4,39.2c-0.5,0.9-1.3,2.8-2.6,5.8c-0.7,1.6-0.6,2.8,0,4.3
	C465.2,371.1,466.3,373.5,467.6,376.1z M756.8,315.8c7.8-2.9,15-2.4,21.5,1.4c0.4,0.2,0.6,0.1,0.6-0.3l-0.1-16.6
	c0-0.8-0.3-1.6-0.9-2.2c-6.5-6.9-17.4-7.7-22.9,0.9c-0.9,1.4-1.3,2.9-1.2,4.6c0.3,4.6,0.3,8.9,0.1,12.8c0,0.6,0.2,0.8,0.8,0.6
	C755.4,316.8,755.9,316.1,756.8,315.8z M592.3,296c-5.2,0.9-9.6,2.3-13.2,4.1c-0.3,0.1-0.5,0.4-0.6,0.7l-6.3,17
	c-0.3,0.9-0.1,1.6,0.8,2.1l6.1,3.5c1.5,1.5,2.9,2.6,4.1,3.1c2.8,1.3,6.1,2.9,9.9,4.6c1,0.4,1.6,0.2,2-0.8l12.6-32.1
	c0.3-0.7-0.1-1.4-0.7-1.7c0,0-0.1,0-0.1,0C601.3,295.1,596.5,294.9,592.3,296z M754.3,354.9c1.8,4.5,4.7,7.4,8.7,8.9
	c4,1.4,8.3-0.1,11.7-2.4c2-1.4,3-2.9,3-4.5c0.9-1.7,1.3-3.3,1.3-4.7c0-6.8,0-13.7,0-20.6c0-0.5-0.2-0.9-0.5-1.3
	c-3.1-3.9-6.8-6.1-11.1-6.7c-4.7-0.6-9.8,1.2-12.9,4.7c-0.6,0.6-0.9,1.5-0.8,2.3L754.3,354.9z M208.1,748.7
	c4.5,10.6,9.1,19.1,14,25.6c2.5,3.3,5.3,7.5,7.2,9.9c11,14.2,23.2,27.2,36.6,39.1c3.4,3,7.3,5.6,10.9,8.5
	c5.7,4.5,11.8,8.4,17.7,12.6c3,2.1,6.1,4.1,9.3,6c9,5.3,18.2,10.2,27.7,14.7c3.2,1.5,6.7,2.8,10.4,3.9c3.5,1,7,2.1,10.6,3.4
	c7.5,2.6,14.4,4.7,20.8,6.1c4,0.9,8.2,1.7,12.6,2.4c1,0.2,2,0.4,3,0.9c1,0.4,2,0.7,3.1,0.9c0.7,0.1,0.7,0,0.1-0.4
	c-1.5-1-3-1.7-4.7-2.3c-1.4-0.5-2.8-1.1-4.1-1.9c-3.8-2.2-8.1-3.9-12.1-6.1c-1.2-0.7-2.7-1.4-4.5-2.2c-4.3-1.9-9-4.5-13.9-7.8
	c-3.6-2.4-7.6-4.2-11.3-6.7c-2.6-1.8-5.4-3.6-8.2-5.3c-4.4-2.6-8.7-5.5-12.7-8.7c-2.6-2-5-3.7-7.2-5.1c-3.5-2.2-5.9-3.8-7.3-4.9
	c-11.7-9.4-22.5-19.2-32.3-29.5c-3.5-3.6-6.6-7.6-9.8-11.6c-2.5-3-4.6-6.1-6.5-9.3c-3.3-5.6-6.6-10.9-9.9-16c-1.1-1.6-2-3.3-2.8-4.9
	c-0.9-1.9-1.9-3.7-2.9-5.2c-3.4-5.3-6.5-10.8-9.4-16.6c-0.2-0.4-0.1-0.6,0.4-0.7c0.1,0,0.3,0,0.4,0.1c4.7,4,8.7,8.6,13.7,12
	c2.9,2,5.8,4.1,8.8,6.3c2.9,2.1,5.7,4,8.3,5.5c6.3,3.7,12.4,7.1,18.5,10.3c5,2.7,10.5,5,16.6,7.1c6.9,2.3,12.9,4.3,18,5.8
	c9.1,2.7,19.6,4.7,31.4,6c3.9,0.4,7.8,0.5,11.6,0.9c2.9,0.3,5.7,0.5,8.7,0.5c11.1,0.1,22.1-0.4,33.2-1.4c6.9-0.7,13.4-2.7,20.2-4
	c7.6-1.5,15.8-3.7,24.7-6.4c5.2-1.6,10-3.3,14.5-5c4.8-1.9,9.5-3.9,14.1-6c4.3-2,8.3-4.2,12.1-6.8c2.6-1.7,5.5-2.6,8-4.4
	c1.4-1,2.7-1.9,4.2-2.8c15.2-9.4,28.7-19.8,40.3-31c11.8-11.4,22.8-24.7,33.1-40c2.5-3.8,4.9-7.5,7.1-11.3c3.4-5.8,5.7-9.7,6.7-11.9
	c6.5-13.1,12.2-27.5,17.2-43c0.4-1.4,0.8-2.8,1.2-4.4c0.3-1.5,0.6-3,1-4.5c2.2-9.4,4-18.5,5.5-27.5c1.3-8,2-15.2,2.2-21.5
	c0.4-17.1,0.4-35.5-3-51.8c-1.7-8.2-3.5-16.3-5.9-24.4c-0.7-2.5-2.1-4.3-4.8-4.7c-11.7-1.9-23.1-5.5-34.1-10.7
	c-4.8-2.3-7.3-3.5-7.7-3.6c-3.1-1.4-6.3-3-9.3-4.7c-14.8-8.3-26.6-15.6-35.4-21.8c-5.2-3.7-10.5-7.6-15.8-11.8
	c-2.8-2.2-5.3-4.7-8-6.9c-2.3-1.9-4-4.1-6.2-6c-3-2.5-6.6-6.3-8.5-8.8c-3.7-5.2-7.2-8.9-10.4-11.2c-2.8-4.8-5.7-9.6-8.7-14.5
	c-2.3-3.8-4.3-7.6-6-11.3c-0.5-1.1-1.6-1.9-2.9-1.9l-4.7-0.1c-12-0.3-24-0.1-36,0.7c-7.4,0.5-14.3,1.4-20.7,2.7
	c-7.1,1.4-14.4,3.2-21.9,5.2c-14.2,3.8-29.4,10.1-45.8,18.8c-19.1,10.2-36.7,22.6-52.8,37.3c-20.8,19-39,41.2-53.2,65.7
	c-3.6,6.1-6,10.5-7.3,13.1c-7.1,13.8-13.1,29-18.2,45.8c-10.8,35.6-12.6,74.4-6.6,111c2.7,16.2,6.2,31.6,12.4,46.8
	c2.4,5.9,4.8,11.7,7.3,17.6C202.1,736.8,204.9,742.8,208.1,748.7z"/>
<path class="st0" d="M708.4,200c-8.1-2.3-16.3-2.8-24.7-1.5c-0.3,0.1-0.6,0.2-0.9,0.4l-7.2-11.4c-0.2-0.3-0.1-0.7,0.2-0.9
	c0,0,0.1,0,0.1-0.1c5-1.8,10.4-2.9,16.1-3.3c7.2-0.5,14,0.7,20.9,2.4c0.7,0.2,0.9,0.6,0.6,1.2L708.4,200z"/>
<path class="st0" d="M742.6,219.8c-3.1-0.1-5.1-2.4-7.4-4.1c-1.2-0.9-2.5-1.8-4-2.7c-4.2-2.6-8.4-5.3-12.3-8.3
	c0.5-1.9,0.9-3.8,1.5-5.7c0.9-3.2,2.7-4.8,4.7-7.2c0.3-0.3,0.7-0.5,1.2-0.4c10.9,2.6,21.6,14.8,27.8,24.4c0.2,0.3,0.1,0.6-0.2,0.8
	c-0.1,0.1-0.2,0.1-0.3,0.1C749.7,216.9,746.1,217.9,742.6,219.8z"/>
<path class="st0" d="M672.8,203.5c-6.5,2.7-10.6,4.7-12.4,5.9c-3.8,2.5-7.6,5-11.6,7.5l-9-7.1c-0.4-0.3-0.4-0.8-0.1-1.1
	c0,0,0.1-0.1,0.1-0.1c6.7-5.8,14.1-10.9,22.1-15.2c0.6-0.3,1.3-0.3,1.9,0C667.7,195.5,670.7,198.9,672.8,203.5z"/>
<path class="st27" d="M708.4,200l-2.2,11.1c-0.1,0.5-0.6,0.9-1.1,0.8c-5.7-0.6-11.2-0.7-16.5-0.5c-1,0-1.9-0.5-2.2-1.5
	c-1.2-3.2-2.4-6.3-3.6-9.3c-0.2-0.4-0.2-0.9,0-1.6c0.3-0.2,0.6-0.4,0.9-0.4C692.1,197.1,700.4,197.6,708.4,200z"/>
<path class="st27" d="M672.8,203.5l4.3,9.9c0.5,1.2,0,2.6-1.2,3.1c0,0,0,0,0,0c-6,2.6-11.5,5.9-16.6,9.9c-0.7,0.5-1.6,0.4-2.1-0.2
	l-8.4-9.4c4-2.5,7.8-5,11.6-7.5C662.2,208.2,666.3,206.2,672.8,203.5z"/>
<path class="st27" d="M718.8,204.8c4,3,8.1,5.7,12.3,8.3c1.5,0.9,2.8,1.8,4,2.7c2.3,1.7,4.3,4,7.4,4.1l-8.3,7.9
	c-0.7,0.6-1.7,0.6-2.3,0c-4.2-3.9-8.5-7.5-13.1-10.8C716.2,215,718.1,207,718.8,204.8z"/>
<path class="st0" d="M639.5,224.2c0,0.6-0.2,1-0.6,1.4c-4.9,5.3-10.7,12.1-17.6,20.3l-10.2-2.5c-0.4-0.1-0.7-0.5-0.6-0.9
	c0-0.1,0.1-0.2,0.1-0.2c5.7-8.3,11.8-16.1,18.4-23.6c0.3-0.3,0.7-0.4,1.1-0.3C633.6,219.6,636.7,221.6,639.5,224.2z"/>
<path class="st27" d="M639.5,224.2c3.8,1.8,6.8,4.6,8.8,8.6c0.2,0.4,0.2,0.7-0.1,1l-12.4,17c-0.3,0.4-0.9,0.6-1.4,0.4l-13.2-5.4
	c6.8-8.2,12.7-15,17.6-20.3C639.3,225.2,639.5,224.7,639.5,224.2z"/>
<path class="st28" d="M757.7,227.4l-0.7,0.1c-0.4,0.1-0.5,0.3-0.3,0.6l11.9,19c1.1,1,1.9,2.4,2.2,4.2c0.1,0.3-0.1,0.5-0.4,0.5
	l-8.8-0.4c-2.3,0.4-3.9-0.4-4.9-2.3c-3.2-6.5-6.4-13-9.5-19.5C750.2,227,754,227.1,757.7,227.4z"/>
<path class="st0" d="M757.7,227.4c0.9,0,1.6,0.1,2.3,0.4c0.3,0.1,0.6,0.4,0.8,0.7c3.1,5.9,5.7,12.1,7.9,18.7l-11.9-19
	c-0.2-0.3-0.1-0.6,0.3-0.6L757.7,227.4z"/>
<path class="st27" d="M747.2,229.8c3.1,6.5,6.3,13,9.5,19.5c0.9,1.9,2.6,2.7,4.9,2.3c-5.1,0.7-9.6,2.5-13.6,5.3
	c-0.4,0.3-0.9,0.2-1.2-0.2c-0.1-0.1-0.1-0.2-0.1-0.3c-0.7-2.7-1-5.3-2.3-7.8c-1.6-3.1-3.1-6-4.4-8.6c-0.8-1.6-0.4-3.6,1-4.8
	L747.2,229.8z"/>
<path class="st0" d="M615.3,255.8c-0.2,1.1-0.3,1.8-1,2.7c-6.1,7.9-11.1,16.4-15,25.5l-12,1.2c-0.4,0-0.5-0.1-0.4-0.5
	c3.5-9.8,9.3-19.6,14.6-28.6c1.4-2.4,2.7-1.5,4.9-1.6C609.4,254.4,612.4,254.8,615.3,255.8z"/>
<path class="st27" d="M615.3,255.8l11.9,5.4c0.5,0.2,0.6,0.6,0.3,1l-13.9,23.5c-0.3,0.5-0.9,0.8-1.5,0.7l-12.8-2.5
	c3.9-9.1,8.9-17.6,15-25.5C615,257.6,615,256.8,615.3,255.8z"/>
<path class="st29" d="M768.2,282.4h-6.9c-0.8,0-1.5-0.5-1.6-1.3c-1.4-5.9-1.6-11.8-0.5-17.5c7.9-1.6,15.9,0.1,16.9,9.4
	c0.4,3.8,0.8,7.4,1.2,11c0.1,0.9-0.3,1.2-1.1,0.9L768.2,282.4z"/>
<path class="st27" d="M759.1,263.6c-1.1,5.8-0.9,11.6,0.5,17.5c0.2,0.8,0.9,1.3,1.6,1.3h6.9c-5.5-0.4-10.2,0.9-14.2,4
	c-0.3,0.2-0.8,0.2-1-0.1c-0.1-0.1-0.1-0.3-0.1-0.4c-0.1-4.8-1-9.6-2.5-14.4c-0.3-1.1-0.1-2,0.6-2.9
	C753.2,266,755.9,264.4,759.1,263.6z"/>
<path class="st0" d="M563.9,301c-3.9-1.4-7.7-1.9-11.5-1.3c-4.3,0.7-7.4,3.6-6.5,8.1c0.4,2.1,1.6,4.7,3.7,8.1
	c7.6,10.6,17.4,19.1,29.5,25.6c0.9,1,1.9,1.9,3.1,2.6c1.7,1.1,2.8,1.8,3.3,2.2c9.1,7.5,18.4,15.2,27.7,23.1c0.3,0.3,0.5,0.7,0.4,1.1
	c0,0.2-0.4,0.2-1.1,0.1c-30.4-9.2-57.9-24-82.4-44.3l-10.8-9.3c-0.2-0.2-0.5-0.2-0.7,0.1c0,0,0,0.1-0.1,0.1l-0.2,0.4
	c-0.1,0.2-0.1,0.3,0.1,0.5c3.6,2.9,5.8,5.3,6.7,7.2c1.1,2.3,0.7,3.2-1.3,2.8c-5.9-5.2-11.4-10.5-16.2-16.1c-0.7-0.8-1.9-0.9-2.8-0.2
	c-0.2,0.1-0.3,0.3-0.4,0.5l-36.9,63.9c-1.3-2.5-2.5-5-3.5-7.4c-0.7-1.5-0.7-2.8,0-4.3c1.3-3,2.1-4.9,2.6-5.8
	c8.7-16.5,15.8-29.5,21.4-39.2c4.3-7.4,8.6-15.2,12.9-23.5c1.5-2.9,4.2-5,8-6.1c17.5-5.3,39,1.6,54.9,9.5
	C564.2,299.4,564.2,300,563.9,301z"/>
<path class="st29" d="M756.8,315.8c-0.8,0.3-1.3,0.9-2.1,1.2c-0.5,0.2-0.8,0-0.8-0.6c0.2-3.9,0.1-8.2-0.1-12.8
	c-0.1-1.7,0.3-3.2,1.2-4.6c5.5-8.7,16.5-7.9,22.9-0.9c0.6,0.6,0.9,1.4,0.9,2.2l0.1,16.6c0,0.4-0.2,0.5-0.6,0.3
	C771.7,313.4,764.5,312.9,756.8,315.8z"/>
<path class="st27" d="M579.1,323.5c1.4,0.3,2.4-0.2,2.8-1.4c0.5-1.4,0.8-2.3,0.9-2.5c0.8-1.5,1.5-3,2-4.7c0.6-1.8,1.2-3.4,1.9-4.6
	c2.5-4.5,4.3-9.2,5.6-14.3c4.1-1.1,9-1,14.6,0.5c0.7,0.2,1.1,0.9,0.9,1.6c0,0,0,0.1,0,0.1l-12.6,32.1c-0.4,1-1.1,1.3-2,0.8
	c-3.8-1.7-7.2-3.2-9.9-4.6C582,326.1,580.6,325,579.1,323.5z"/>
<path class="st0" d="M592.3,296c-1.3,5-3.2,9.8-5.6,14.3c-0.7,1.3-1.3,2.8-1.9,4.6c-0.5,1.6-1.2,3.2-2,4.7c-0.1,0.2-0.4,1.1-0.9,2.5
	c-0.4,1.2-1.3,1.7-2.8,1.4L573,320c-0.9-0.5-1.1-1.2-0.8-2.1l6.3-17c0.1-0.3,0.3-0.5,0.6-0.7C582.8,298.3,587.2,297,592.3,296z"/>
<path class="st29" d="M563.9,301l-2.8,6.8c-0.2,0.5-0.8,0.8-1.4,0.6c-7.3-2.3-8.6,1.2-10.1,7.5c-2.1-3.3-3.3-6-3.7-8.1
	c-0.9-4.5,2.2-7.4,6.5-8.1C556.2,299.2,560,299.6,563.9,301z"/>
<path class="st30" d="M524,328c-0.4,0.7-0.2,1.5,0.6,2.4c-0.8-0.2-1.4-0.1-1.6,0.2c-8,12.9-15.9,25.7-24,38.6
	c-1,1.7-3.8,6.3-8.3,14.1c-2.7,4.7-5.6,9.3-8.8,13.8c-5.9-7.2-10.7-14.2-14.4-20.9l36.9-63.9c0.5-0.9,1.7-1.3,2.7-0.7
	c0.2,0.1,0.4,0.3,0.5,0.4C512.6,317.5,518,322.8,524,328z"/>
<path class="st29" d="M530.2,326.3l-0.4,0.1c-0.4,0.1-0.6,0.3-0.6,0.6c0,0.4,0.1,0.8,0.4,1.2c1,1.3,2.2,2.5,3.4,3.6
	c3.2,2.8,6.4,5.6,9.6,8.5c1.2,1.1,1.9,2.5,3.4,3.3c0.3,0.2,0.6,0.5,0.7,0.8c0.2,0.8,0.5,1.2,1.3,1.6c2,1,3.8,2.3,5.5,3.7
	c0.6,0.5,1.3,1,1.9,1.4c0.8,0.5,1.6,1.1,2.3,2c0.2,0.2,0.2,0.5,0.1,0.8c-0.2,0.4-0.4,0.5-0.8,0.3c-0.6-0.3-1.1-0.7-1.5-1.2
	c-0.2-0.3-0.5-0.4-0.9-0.4l-1,0c-10-6.9-19.7-14.3-28.9-22.2c-0.8-0.9-1-1.7-0.6-2.4c2,0.4,2.4-0.6,1.3-2.8
	c-0.9-1.8-3.1-4.2-6.7-7.2c-0.2-0.1-0.2-0.3-0.1-0.5l0.2-0.4c0.1-0.2,0.4-0.3,0.7-0.2c0,0,0.1,0,0.1,0.1L530.2,326.3z"/>
<path class="st30" d="M777.7,356.9c-1.4-7.9-6.1-11.4-13.9-10.3c-2.5,0.3-4.1,1.1-4.9,2.3c-1.4,2.2-2.9,4.2-4.6,6l-0.6-24.3
	c0-0.8,0.3-1.7,0.8-2.3c3.1-3.6,8.2-5.4,12.9-4.7c4.3,0.6,8,2.8,11.1,6.7c0.3,0.4,0.5,0.8,0.5,1.3c0,6.9,0,13.7,0,20.6
	C779,353.6,778.5,355.2,777.7,356.9z"/>
<path class="st29" d="M648,369.1c1.3,11.2-10.4,9.9-17.2,8.5c-6.6-1.4-12.7-3.7-18.2-7c0.7,0.1,1.1,0,1.1-0.1c0-0.4-0.1-0.8-0.4-1.1
	c-9.3-7.9-18.5-15.5-27.7-23.1c-0.5-0.4-1.6-1.2-3.3-2.2c-1.2-0.7-2.2-1.6-3.1-2.6c7,4.2,14.6,6.7,22.8,7.4c4.4,0.4,7.2-1.4,8.4-5.3
	c0.8-2.7,0.4-5.4-1.2-8.2c-0.2-0.4-0.3-0.9-0.2-1.3c0.8-2.8,1.9-5.5,3.4-8c0.5-0.9,1.1-1,1.8-0.3c11.2,10.3,21.8,21,29.9,34.2
	C645.9,362.9,647.2,366,648,369.1z"/>
<path class="st27" d="M530.2,326.3c24.5,20.3,52,35.1,82.4,44.3c5.5,3.3,11.6,5.6,18.2,7c6.8,1.4,18.5,2.7,17.2-8.5
	c2.5,5.8,1.9,10.3-1.6,13.5c-2,1.9-4.5,2.9-7.5,3.2c-4.1,0.4-7.7,0.4-10.9,0.1c-5.7-0.5-12.1-2.7-18-4.4c-0.9-0.3-1.9-1.1-2.9-1.4
	c-11.4-3.2-22-8-31.8-14.5c-4.8-2.7-9.7-5.4-14.5-8.1c-2-1.1-4.4-2.8-7.2-5l1,0c0.4,0,0.7,0.1,0.9,0.4c0.4,0.5,0.9,0.9,1.5,1.2
	c0.4,0.2,0.6,0.1,0.8-0.3c0.1-0.3,0.1-0.6-0.1-0.8c-0.7-0.8-1.4-1.5-2.3-2c-0.6-0.4-1.3-0.8-1.9-1.4c-1.7-1.5-3.5-2.7-5.5-3.7
	c-0.8-0.4-1.1-0.8-1.3-1.6c-0.1-0.4-0.3-0.6-0.7-0.8c-1.5-0.8-2.2-2.2-3.4-3.3c-3.2-2.9-6.4-5.7-9.6-8.5c-1.2-1.1-2.3-2.3-3.4-3.6
	c-0.3-0.4-0.4-0.7-0.4-1.2c0-0.4,0.2-0.6,0.6-0.6L530.2,326.3z"/>
<path class="st31" d="M524.6,330.4c9.2,7.9,18.9,15.3,28.9,22.2c2.8,2.3,5.2,3.9,7.2,5c4.8,2.6,9.7,5.3,14.5,8.1
	c-1.3-0.1-2.7,0.1-3.3,1.4c-1,2-2.1,3.8-3.3,5.6c-4.9,7.3-9.1,14.3-12.8,21.1c-1.9,3.5-4.2,7.3-6.9,11.3c-2.3,3.4-4.7,7.1-7.2,11.2
	c-4,6.5-7.9,12.8-11.7,18.9c-1.1,1.7-2.4,2-4,0.8c-4-2.9-7.8-6.1-12-9c-3.8-2.6-7.5-5.2-11-7.9c-1-0.8-2-1.5-2.9-2.3
	c-7.2-6.5-13.3-13.1-18.2-19.8c3.1-4.5,6-9.1,8.8-13.8c4.5-7.7,7.2-12.4,8.3-14.1c8-12.8,16-25.7,24-38.6
	C523.2,330.2,523.8,330.2,524.6,330.4z"/>
<path class="st27" d="M777.7,356.9c0,1.6-1,3.1-3,4.5c-3.4,2.3-7.6,3.8-11.7,2.4c-4-1.4-6.9-4.4-8.7-8.9c1.7-1.8,3.2-3.8,4.6-6
	c0.7-1.2,2.4-2,4.9-2.3C771.6,345.5,776.2,348.9,777.7,356.9z"/>
<path class="st0" d="M442.5,366c0.5,0,0.9,0,1.2,0.1c0.6,0.2,0.5,0.3-0.1,0.3c-14.9,0.6-30,3.1-45.2,7.4
	c-17.6,5-34.2,10.6-49.7,16.8c-10.2,4.1-20.4,9.9-30.1,15.5c-34.5,19.9-63.8,47.8-86.4,80.8C228,493,223.6,500,219,508
	c-4.1,7-9,17.6-14.7,31.7c-7.9,19.4-13.3,39.4-16.2,60.1c-2.3,20-2.7,39.9-1.2,59.9c0.5,6.4,1.4,13.7,2.7,21.8
	c2.1,12.7,4,22.7,5.8,29.8c2.5,9.8,4.3,16.2,5.6,19.4c2.4,6,4.8,12,7.1,18c-3.1-5.9-6-11.8-8.5-17.9c-2.5-5.9-4.9-11.7-7.3-17.6
	c-6.1-15.2-9.7-30.6-12.4-46.8c-6-36.6-4.1-75.4,6.6-111c5.1-16.8,11.1-32.1,18.2-45.8c1.3-2.6,3.8-6.9,7.3-13.1
	c14.2-24.5,32.4-46.7,53.2-65.7c16.1-14.7,33.7-27.1,52.8-37.3c16.4-8.7,31.6-15,45.8-18.8c7.5-2,14.8-3.8,21.9-5.2
	c6.4-1.3,13.3-2.2,20.7-2.7C418.4,365.9,430.4,365.7,442.5,366z"/>
<path class="st27" d="M442.5,366l4.7,0.1c1.2,0,2.3,0.8,2.9,1.9c1.7,3.8,3.7,7.5,6,11.3c2.9,4.9,5.8,9.7,8.7,14.5
	c1.8,5.4,4.5,10.6,6.6,15c1.1,2.4,2.3,4.6,3.5,6.8c1.6,2.8,2.6,5.3,2.9,7.4c0.7,4.2,0.8,9.1,0.4,14.6c-0.5,6.5-1.3,12.3-2.4,17.4
	c-1.2,5.8-3.1,12.7-5.6,20.5c-3.2,9.9-8.3,21-15.4,33.2c-4.9,8.4-10.6,16.8-17,25c-2.3,3-4.7,6-6.9,8.9c-2,2.6-3.9,4.9-5.8,7.1
	c-2,2.3-4.1,4.6-6.2,6.8c-9.9,10.2-20.2,19.4-31.1,27.6c-14.8,11.2-31.5,20.8-50.1,28.7c-23.8,10.2-48.6,14.9-74.5,14.3
	c-11.1-0.3-21.4-1.8-31-4.7c-9.6-2.8-18.8-6.8-27.6-11.9c-2.7-1.6-5.3-3.4-7.7-5.6c-2.5-2.2-5-4.4-7.3-6.6c-0.3-0.3-0.5-0.2-0.8,0.1
	c-0.2,0.2-0.4,0.6-0.5,1.1c2.9-20.7,8.3-40.7,16.2-60.1C210,525.6,214.9,515,219,508c4.6-7.9,8.9-15,13.1-21.1
	c22.6-32.9,51.9-60.9,86.4-80.8c9.7-5.6,19.9-11.4,30.1-15.5c15.5-6.3,32.1-11.9,49.7-16.8c15.2-4.3,30.3-6.7,45.2-7.4
	c0.6,0,0.6-0.1,0.1-0.3C443.3,366,442.9,366,442.5,366z M451.6,407.3c-3.3-5.6-11.1-7.1-17.5-3.4c0,0,0,0,0,0
	c-6.4,3.8-8.9,11.3-5.6,17c0,0,0,0,0,0c3.3,5.6,11.1,7.1,17.5,3.4c0,0,0,0,0,0C452.3,420.5,454.9,413,451.6,407.3z M385,411.6
	c-4.3-10-17.7-8.8-25.9-4.7c-9.4,4.6-19.6,14.4-15.5,25.9c1.5,4.1,4.2,6.6,8.1,7.5c11.1,2.4,27.3-6.1,32.6-16.5
	C386.5,419.7,386.7,415.6,385,411.6z M227.7,564.4c14.5,9.6,44.9-10.7,68-45.3c0,0,0,0,0,0c23-34.7,30-70.6,15.5-80.2
	c-14.5-9.6-44.9,10.7-68,45.3l0,0C220.2,518.9,213.3,554.8,227.7,564.4z"/>
<path class="st31" d="M464.6,393.9c3.2,2.3,6.7,6,10.4,11.2c1.8,2.6,5.5,6.4,8.5,8.8c2.2,1.8,3.9,4.1,6.2,6c2.7,2.2,5.2,4.7,8,6.9
	c5.3,4.2,10.6,8.2,15.8,11.8c8.8,6.2,20.6,13.5,35.4,21.8c3.1,1.7,6.2,3.3,9.3,4.7c0.4,0.2,2.9,1.4,7.7,3.6
	c11,5.2,22.4,8.8,34.1,10.7c2.7,0.4,4.1,2.2,4.8,4.7c2.4,8.2,4.2,16.3,5.9,24.4c3.4,16.3,3.4,34.8,3,51.8
	c-0.1,6.3-0.9,13.5-2.2,21.5c-1.5,9-3.3,18.2-5.5,27.5c-0.4,1.5-0.7,3-1,4.5c-0.3,1.6-0.7,3.1-1.2,4.4c-5,15.5-10.8,29.9-17.2,43
	c-1,2.1-3.3,6.1-6.7,11.9c-2.2,3.7-4.6,7.5-7.1,11.3c-10.3,15.3-21.3,28.6-33.1,40c-11.6,11.2-25,21.5-40.3,31
	c-1.4,0.9-2.8,1.8-4.2,2.8c-2.4,1.8-5.4,2.6-8,4.4c-3.8,2.6-7.8,4.8-12.1,6.8c-4.6,2.1-9.3,4.1-14.1,6c-4.4,1.7-9.2,3.4-14.5,5
	c-8.9,2.7-17.1,4.9-24.7,6.4c-6.7,1.4-13.3,3.4-20.2,4c-11.1,1.1-22.2,1.6-33.2,1.4c-2.9,0-5.8-0.2-8.7-0.5
	c-3.8-0.4-7.7-0.5-11.6-0.9c-11.9-1.3-22.4-3.3-31.4-6c-5.1-1.5-11.1-3.5-18-5.8c-6-2-11.6-4.4-16.6-7.1
	c-6.1-3.2-12.2-6.7-18.5-10.3c-2.6-1.5-5.4-3.4-8.3-5.5c-3-2.2-5.9-4.3-8.8-6.3c-5-3.5-9-8.1-13.7-12c-0.1-0.1-0.2-0.1-0.4-0.1
	c-0.4,0.1-0.5,0.3-0.4,0.7c2.9,5.7,6,11.2,9.4,16.6c1,1.5,1.9,3.3,2.9,5.2c0.8,1.7,1.8,3.3,2.8,4.9c3.3,5,6.6,10.3,9.9,16
	c1.9,3.2,4.1,6.3,6.5,9.3c3.2,3.9,6.3,7.9,9.8,11.6c9.9,10.3,20.6,20.1,32.3,29.5c1.4,1.1,3.8,2.8,7.3,4.9c2.2,1.4,4.6,3.1,7.2,5.1
	c4.1,3.2,8.3,6.1,12.7,8.7c2.8,1.7,5.6,3.5,8.2,5.3c3.7,2.5,7.7,4.3,11.3,6.7c5,3.3,9.6,5.9,13.9,7.8c1.8,0.8,3.2,1.5,4.5,2.2
	c4,2.2,8.2,3.9,12.1,6.1c1.3,0.8,2.7,1.4,4.1,1.9c1.7,0.6,3.2,1.3,4.7,2.3c0.6,0.4,0.5,0.5-0.1,0.4c-1.1-0.2-2.1-0.5-3.1-0.9
	c-1-0.4-2-0.7-3-0.9c-4.4-0.7-8.6-1.5-12.6-2.4c-6.4-1.4-13.3-3.5-20.8-6.1c-3.6-1.3-7.1-2.4-10.6-3.4c-3.7-1.1-7.2-2.4-10.4-3.9
	c-9.4-4.5-18.6-9.4-27.7-14.7c-3.2-1.9-6.3-3.9-9.3-6c-5.9-4.2-12.1-8.1-17.7-12.6c-3.6-2.9-7.5-5.5-10.9-8.5
	c-13.4-11.9-25.6-24.9-36.6-39.1c-1.9-2.5-4.7-6.6-7.2-9.9c-4.9-6.4-9.5-14.9-14-25.6c-2.3-6.1-4.7-12.1-7.1-18
	c-1.3-3.2-3.2-9.6-5.6-19.4c-1.8-7.2-3.7-17.1-5.8-29.8c-1.3-8.2-2.2-15.4-2.7-21.8c-1.5-19.9-1.1-39.9,1.2-59.9
	c0.1-0.5,0.3-0.8,0.5-1.1c0.2-0.3,0.5-0.3,0.8-0.1c2.3,2.1,4.8,4.3,7.3,6.6c2.4,2.1,5,4,7.7,5.6c8.8,5.1,18.1,9.1,27.6,11.9
	c9.6,2.8,20,4.4,31,4.7c25.9,0.7,50.8-4.1,74.5-14.3c18.6-8,35.3-17.5,50.1-28.7c10.9-8.2,21.3-17.4,31.1-27.6
	c2.1-2.2,4.2-4.5,6.2-6.8c1.9-2.2,3.8-4.5,5.8-7.1c2.3-3,4.6-5.9,6.9-8.9c6.4-8.2,12.1-16.5,17-25c7.1-12.2,12.2-23.3,15.4-33.2
	c2.5-7.9,4.4-14.7,5.6-20.5c1.1-5.1,1.9-10.9,2.4-17.4c0.4-5.5,0.3-10.4-0.4-14.6c-0.4-2.2-1.4-4.6-2.9-7.4
	c-1.2-2.2-2.4-4.4-3.5-6.8C469.2,404.5,466.5,399.3,464.6,393.9z"/>
<ellipse transform="matrix(0.8625 -0.506 0.506 0.8625 -149.0743 279.5893)" class="st0" cx="440" cy="414.1" rx="13.4" ry="11.8"/>
<path class="st0" d="M385,411.6c1.7,4,1.5,8.1-0.7,12.3c-5.3,10.3-21.5,18.9-32.6,16.5c-3.9-0.9-6.6-3.3-8.1-7.5
	c-4.1-11.5,6.1-21.3,15.5-25.9C367.3,402.8,380.7,401.6,385,411.6z"/>
<ellipse transform="matrix(0.5534 -0.8329 0.8329 0.5534 -297.4748 448.4678)" class="st0" cx="269.5" cy="501.6" rx="75.4" ry="31.5"/>
<path class="st28" d="M304.1,885.7c7.6,4,13.3,6.8,17.3,8.4c29.4,12.3,58,20.2,86,23.6c33.7,4.1,66.6,2.7,98.5-4.2
	c27.6-5.9,54.6-15.6,81-29.1c2.6-0.3,5.9-0.3,9.8-0.2c46.2,2,90.6,6,132.9,11.5c15.2,2,30.8,5,46.9,9.2c7.3,1.9,13.3,4.3,17.9,7.2
	c2.2,1.4,5.9,4.6,5.2,7.6c-1.2,4.9-7.6,7.6-12.1,9.4c-6.2,2.4-12.3,4.4-18.6,5.8c-14.9,3.5-29.3,6.2-43.2,8.3
	c-16.1,2.4-34.5,5-51.4,6.7c-29.2,3-59.1,5.1-89.6,6.3c-64.9,2.5-129.8,3.1-194.9,1.6c-7.2-0.2-14.5-0.4-21.8-0.8
	c-26-1.3-51.5-3-76.5-5c-28.3-2.3-56.6-5.7-85-10.2c-15.3-2.4-29.5-5.5-42.8-9.3c-6-1.7-17.1-5.6-20.4-11.2
	c-8.5-14.4,61-24.7,67.7-25.7c28.8-4.4,56.6-7.6,83.5-9.8C295.9,885.6,299.1,885.6,304.1,885.7z"/>
</svg>
